# xmcd CD database file
#
# Track frame offsets:
#	150
#	16760
#	34377
#	53464
#	77180
#	105570
#
# Disc length: 1568 seconds
#
# Revision: 0
# Processed by: cddbd v1.5.2PL0 Copyright (c) Steve Scherf et al.
# Submitted via: CDex 1.70beta2
#
DISCID=3c061e06
DTITLE=PAUL CAMILLERI and THE BLUE EXPRESS - WHO'S BEEN TALKIN'
DYEAR=1999
DGENRE=Blues
TTITLE0=01 WHO'S BEEN TALKIN'
TTITLE1=02 WATCH YOURSELF
TTITLE2=03 I FEEL FINE
TTITLE3=04 4.35 AM
TTITLE4=05 HAVE YOU EVER LOVED A WOMAN
TTITLE5=06 LONG DISTANCE BLUES
EXTD=YEAR: 1999
EXTT0=
EXTT1=
EXTT2=
EXTT3=
EXTT4=
EXTT5=
PLAYORDER=
